<mxfile host="app.diagrams.net" modified="2023-04-25T11:28:18.815Z" agent="Mozilla/5.0 (Macintosh; Intel Mac OS X 10_15_7) AppleWebKit/537.36 (KHTML, like Gecko) Chrome/108.0.0.0 Safari/537.36" etag="e1Qz2TFtZ0bmJ-EyEVdd" version="21.1.9" type="device" pages="2">
  <diagram name="fully-connected" id="7Afjcu2gU9bavT42Gswf">
    <mxGraphModel dx="1026" dy="635" grid="1" gridSize="10" guides="1" tooltips="1" connect="1" arrows="1" fold="1" page="1" pageScale="1" pageWidth="850" pageHeight="1100" math="0" shadow="0">
      <root>
        <mxCell id="0" />
        <mxCell id="1" parent="0" />
        <mxCell id="YgHyJEch0R5-Di_JKVc1-9" style="rounded=0;orthogonalLoop=1;jettySize=auto;html=1;exitX=1;exitY=0.5;exitDx=0;exitDy=0;entryX=0;entryY=0.5;entryDx=0;entryDy=0;" edge="1" parent="1" source="YgHyJEch0R5-Di_JKVc1-1" target="YgHyJEch0R5-Di_JKVc1-5">
          <mxGeometry relative="1" as="geometry" />
        </mxCell>
        <mxCell id="YgHyJEch0R5-Di_JKVc1-10" style="rounded=0;orthogonalLoop=1;jettySize=auto;html=1;exitX=1;exitY=0.5;exitDx=0;exitDy=0;entryX=0;entryY=0.5;entryDx=0;entryDy=0;" edge="1" parent="1" source="YgHyJEch0R5-Di_JKVc1-1" target="YgHyJEch0R5-Di_JKVc1-6">
          <mxGeometry relative="1" as="geometry" />
        </mxCell>
        <mxCell id="YgHyJEch0R5-Di_JKVc1-11" style="rounded=0;orthogonalLoop=1;jettySize=auto;html=1;exitX=1;exitY=0.5;exitDx=0;exitDy=0;entryX=0;entryY=0.5;entryDx=0;entryDy=0;" edge="1" parent="1" source="YgHyJEch0R5-Di_JKVc1-1" target="YgHyJEch0R5-Di_JKVc1-7">
          <mxGeometry relative="1" as="geometry" />
        </mxCell>
        <mxCell id="YgHyJEch0R5-Di_JKVc1-12" style="rounded=0;orthogonalLoop=1;jettySize=auto;html=1;exitX=1;exitY=0.5;exitDx=0;exitDy=0;entryX=0;entryY=0.5;entryDx=0;entryDy=0;" edge="1" parent="1" source="YgHyJEch0R5-Di_JKVc1-1" target="YgHyJEch0R5-Di_JKVc1-8">
          <mxGeometry relative="1" as="geometry" />
        </mxCell>
        <mxCell id="YgHyJEch0R5-Di_JKVc1-1" value="x&lt;sub&gt;1&lt;/sub&gt;" style="ellipse;whiteSpace=wrap;html=1;aspect=fixed;" vertex="1" parent="1">
          <mxGeometry x="170" y="175" width="30" height="30" as="geometry" />
        </mxCell>
        <mxCell id="YgHyJEch0R5-Di_JKVc1-14" style="rounded=0;orthogonalLoop=1;jettySize=auto;html=1;exitX=1;exitY=0.5;exitDx=0;exitDy=0;entryX=0;entryY=0.5;entryDx=0;entryDy=0;" edge="1" parent="1" source="YgHyJEch0R5-Di_JKVc1-2" target="YgHyJEch0R5-Di_JKVc1-5">
          <mxGeometry relative="1" as="geometry" />
        </mxCell>
        <mxCell id="YgHyJEch0R5-Di_JKVc1-23" value="w&lt;sub&gt;21&lt;/sub&gt;" style="edgeLabel;html=1;align=center;verticalAlign=middle;resizable=0;points=[];" vertex="1" connectable="0" parent="YgHyJEch0R5-Di_JKVc1-14">
          <mxGeometry x="0.3317" y="3" relative="1" as="geometry">
            <mxPoint as="offset" />
          </mxGeometry>
        </mxCell>
        <mxCell id="YgHyJEch0R5-Di_JKVc1-15" style="rounded=0;orthogonalLoop=1;jettySize=auto;html=1;exitX=1;exitY=0.5;exitDx=0;exitDy=0;entryX=0;entryY=0.5;entryDx=0;entryDy=0;" edge="1" parent="1" source="YgHyJEch0R5-Di_JKVc1-2" target="YgHyJEch0R5-Di_JKVc1-6">
          <mxGeometry relative="1" as="geometry" />
        </mxCell>
        <mxCell id="YgHyJEch0R5-Di_JKVc1-24" value="w&lt;sub&gt;22&lt;/sub&gt;" style="edgeLabel;html=1;align=center;verticalAlign=middle;resizable=0;points=[];" vertex="1" connectable="0" parent="YgHyJEch0R5-Di_JKVc1-15">
          <mxGeometry x="0.4048" y="3" relative="1" as="geometry">
            <mxPoint as="offset" />
          </mxGeometry>
        </mxCell>
        <mxCell id="YgHyJEch0R5-Di_JKVc1-16" style="rounded=0;orthogonalLoop=1;jettySize=auto;html=1;exitX=1;exitY=0.5;exitDx=0;exitDy=0;" edge="1" parent="1" source="YgHyJEch0R5-Di_JKVc1-2">
          <mxGeometry relative="1" as="geometry">
            <mxPoint x="370" y="270" as="targetPoint" />
          </mxGeometry>
        </mxCell>
        <mxCell id="YgHyJEch0R5-Di_JKVc1-25" value="&lt;font size=&quot;1&quot;&gt;w&lt;sub&gt;23&lt;/sub&gt;&lt;/font&gt;" style="edgeLabel;html=1;align=center;verticalAlign=middle;resizable=0;points=[];" vertex="1" connectable="0" parent="YgHyJEch0R5-Di_JKVc1-16">
          <mxGeometry x="0.5305" y="-1" relative="1" as="geometry">
            <mxPoint as="offset" />
          </mxGeometry>
        </mxCell>
        <mxCell id="YgHyJEch0R5-Di_JKVc1-17" style="rounded=0;orthogonalLoop=1;jettySize=auto;html=1;exitX=1;exitY=0.5;exitDx=0;exitDy=0;entryX=0;entryY=0.5;entryDx=0;entryDy=0;" edge="1" parent="1" source="YgHyJEch0R5-Di_JKVc1-2" target="YgHyJEch0R5-Di_JKVc1-8">
          <mxGeometry relative="1" as="geometry" />
        </mxCell>
        <mxCell id="YgHyJEch0R5-Di_JKVc1-26" value="w&lt;sub&gt;24&lt;/sub&gt;" style="edgeLabel;html=1;align=center;verticalAlign=middle;resizable=0;points=[];" vertex="1" connectable="0" parent="YgHyJEch0R5-Di_JKVc1-17">
          <mxGeometry x="0.464" y="-1" relative="1" as="geometry">
            <mxPoint as="offset" />
          </mxGeometry>
        </mxCell>
        <mxCell id="YgHyJEch0R5-Di_JKVc1-2" value="x&lt;span style=&quot;font-size: 10px;&quot;&gt;&lt;sub&gt;2&lt;br&gt;&lt;/sub&gt;&lt;/span&gt;" style="ellipse;whiteSpace=wrap;html=1;aspect=fixed;" vertex="1" parent="1">
          <mxGeometry x="170" y="225" width="30" height="30" as="geometry" />
        </mxCell>
        <mxCell id="YgHyJEch0R5-Di_JKVc1-18" style="rounded=0;orthogonalLoop=1;jettySize=auto;html=1;exitX=1;exitY=0.5;exitDx=0;exitDy=0;entryX=0;entryY=0.5;entryDx=0;entryDy=0;" edge="1" parent="1" source="YgHyJEch0R5-Di_JKVc1-3" target="YgHyJEch0R5-Di_JKVc1-5">
          <mxGeometry relative="1" as="geometry" />
        </mxCell>
        <mxCell id="YgHyJEch0R5-Di_JKVc1-19" style="rounded=0;orthogonalLoop=1;jettySize=auto;html=1;exitX=1;exitY=0.5;exitDx=0;exitDy=0;entryX=0;entryY=0.5;entryDx=0;entryDy=0;" edge="1" parent="1" source="YgHyJEch0R5-Di_JKVc1-3" target="YgHyJEch0R5-Di_JKVc1-6">
          <mxGeometry relative="1" as="geometry" />
        </mxCell>
        <mxCell id="YgHyJEch0R5-Di_JKVc1-20" style="rounded=0;orthogonalLoop=1;jettySize=auto;html=1;exitX=1;exitY=0.5;exitDx=0;exitDy=0;entryX=0;entryY=0.5;entryDx=0;entryDy=0;" edge="1" parent="1" source="YgHyJEch0R5-Di_JKVc1-3" target="YgHyJEch0R5-Di_JKVc1-7">
          <mxGeometry relative="1" as="geometry" />
        </mxCell>
        <mxCell id="YgHyJEch0R5-Di_JKVc1-21" style="rounded=0;orthogonalLoop=1;jettySize=auto;html=1;exitX=1;exitY=0.5;exitDx=0;exitDy=0;entryX=0;entryY=0.5;entryDx=0;entryDy=0;" edge="1" parent="1" source="YgHyJEch0R5-Di_JKVc1-3" target="YgHyJEch0R5-Di_JKVc1-8">
          <mxGeometry relative="1" as="geometry" />
        </mxCell>
        <mxCell id="YgHyJEch0R5-Di_JKVc1-3" value="x&lt;span style=&quot;font-size: 10px;&quot;&gt;&lt;sub&gt;3&lt;/sub&gt;&lt;/span&gt;" style="ellipse;whiteSpace=wrap;html=1;aspect=fixed;" vertex="1" parent="1">
          <mxGeometry x="170" y="275" width="30" height="30" as="geometry" />
        </mxCell>
        <mxCell id="YgHyJEch0R5-Di_JKVc1-5" value="y&lt;sub&gt;1&lt;/sub&gt;" style="ellipse;whiteSpace=wrap;html=1;aspect=fixed;" vertex="1" parent="1">
          <mxGeometry x="370" y="155" width="30" height="30" as="geometry" />
        </mxCell>
        <mxCell id="YgHyJEch0R5-Di_JKVc1-6" value="y&lt;span style=&quot;font-size: 10px;&quot;&gt;&lt;sub&gt;2&lt;/sub&gt;&lt;/span&gt;" style="ellipse;whiteSpace=wrap;html=1;aspect=fixed;" vertex="1" parent="1">
          <mxGeometry x="370" y="205" width="30" height="30" as="geometry" />
        </mxCell>
        <mxCell id="YgHyJEch0R5-Di_JKVc1-7" value="y&lt;span style=&quot;font-size: 10px;&quot;&gt;&lt;sub&gt;3&lt;/sub&gt;&lt;/span&gt;" style="ellipse;whiteSpace=wrap;html=1;aspect=fixed;" vertex="1" parent="1">
          <mxGeometry x="370" y="255" width="30" height="30" as="geometry" />
        </mxCell>
        <mxCell id="YgHyJEch0R5-Di_JKVc1-8" value="y&lt;span style=&quot;font-size: 10px;&quot;&gt;&lt;sub&gt;4&lt;/sub&gt;&lt;/span&gt;" style="ellipse;whiteSpace=wrap;html=1;aspect=fixed;" vertex="1" parent="1">
          <mxGeometry x="370" y="305" width="30" height="30" as="geometry" />
        </mxCell>
      </root>
    </mxGraphModel>
  </diagram>
  <diagram id="9MpT_VhfuiMlKWla7YZ6" name="sparsely-connected">
    <mxGraphModel dx="1026" dy="635" grid="1" gridSize="10" guides="1" tooltips="1" connect="1" arrows="1" fold="1" page="1" pageScale="1" pageWidth="850" pageHeight="1100" math="0" shadow="0">
      <root>
        <mxCell id="0" />
        <mxCell id="1" parent="0" />
        <mxCell id="ezw_vOgPTsSlq73NOPaX-1" style="rounded=0;orthogonalLoop=1;jettySize=auto;html=1;exitX=1;exitY=0.5;exitDx=0;exitDy=0;entryX=0;entryY=0.5;entryDx=0;entryDy=0;" edge="1" parent="1" source="ezw_vOgPTsSlq73NOPaX-3" target="ezw_vOgPTsSlq73NOPaX-12">
          <mxGeometry relative="1" as="geometry" />
        </mxCell>
        <mxCell id="ezw_vOgPTsSlq73NOPaX-2" style="rounded=0;orthogonalLoop=1;jettySize=auto;html=1;exitX=1;exitY=0.5;exitDx=0;exitDy=0;entryX=0;entryY=0.5;entryDx=0;entryDy=0;" edge="1" parent="1" source="ezw_vOgPTsSlq73NOPaX-3" target="ezw_vOgPTsSlq73NOPaX-13">
          <mxGeometry relative="1" as="geometry" />
        </mxCell>
        <mxCell id="ezw_vOgPTsSlq73NOPaX-3" value="x&lt;sub&gt;1&lt;/sub&gt;" style="ellipse;whiteSpace=wrap;html=1;aspect=fixed;" vertex="1" parent="1">
          <mxGeometry x="170" y="175" width="30" height="30" as="geometry" />
        </mxCell>
        <mxCell id="ezw_vOgPTsSlq73NOPaX-4" style="rounded=0;orthogonalLoop=1;jettySize=auto;html=1;exitX=1;exitY=0.5;exitDx=0;exitDy=0;entryX=0;entryY=0.5;entryDx=0;entryDy=0;" edge="1" parent="1" source="ezw_vOgPTsSlq73NOPaX-6" target="ezw_vOgPTsSlq73NOPaX-11">
          <mxGeometry relative="1" as="geometry" />
        </mxCell>
        <mxCell id="ezw_vOgPTsSlq73NOPaX-5" value="w&lt;sub&gt;21&lt;/sub&gt;" style="edgeLabel;html=1;align=center;verticalAlign=middle;resizable=0;points=[];" vertex="1" connectable="0" parent="ezw_vOgPTsSlq73NOPaX-4">
          <mxGeometry x="0.3317" y="3" relative="1" as="geometry">
            <mxPoint as="offset" />
          </mxGeometry>
        </mxCell>
        <mxCell id="ezw_vOgPTsSlq73NOPaX-6" value="x&lt;span style=&quot;font-size: 10px;&quot;&gt;&lt;sub&gt;2&lt;br&gt;&lt;/sub&gt;&lt;/span&gt;" style="ellipse;whiteSpace=wrap;html=1;aspect=fixed;" vertex="1" parent="1">
          <mxGeometry x="170" y="225" width="30" height="30" as="geometry" />
        </mxCell>
        <mxCell id="ezw_vOgPTsSlq73NOPaX-7" style="rounded=0;orthogonalLoop=1;jettySize=auto;html=1;exitX=1;exitY=0.5;exitDx=0;exitDy=0;entryX=0;entryY=0.5;entryDx=0;entryDy=0;" edge="1" parent="1" source="ezw_vOgPTsSlq73NOPaX-10" target="ezw_vOgPTsSlq73NOPaX-11">
          <mxGeometry relative="1" as="geometry" />
        </mxCell>
        <mxCell id="ezw_vOgPTsSlq73NOPaX-8" style="rounded=0;orthogonalLoop=1;jettySize=auto;html=1;exitX=1;exitY=0.5;exitDx=0;exitDy=0;entryX=0;entryY=0.5;entryDx=0;entryDy=0;" edge="1" parent="1" source="ezw_vOgPTsSlq73NOPaX-10" target="ezw_vOgPTsSlq73NOPaX-12">
          <mxGeometry relative="1" as="geometry" />
        </mxCell>
        <mxCell id="ezw_vOgPTsSlq73NOPaX-9" style="rounded=0;orthogonalLoop=1;jettySize=auto;html=1;exitX=1;exitY=0.5;exitDx=0;exitDy=0;entryX=0;entryY=0.5;entryDx=0;entryDy=0;" edge="1" parent="1" source="ezw_vOgPTsSlq73NOPaX-10" target="ezw_vOgPTsSlq73NOPaX-14">
          <mxGeometry relative="1" as="geometry" />
        </mxCell>
        <mxCell id="ezw_vOgPTsSlq73NOPaX-10" value="x&lt;span style=&quot;font-size: 10px;&quot;&gt;&lt;sub&gt;3&lt;/sub&gt;&lt;/span&gt;" style="ellipse;whiteSpace=wrap;html=1;aspect=fixed;" vertex="1" parent="1">
          <mxGeometry x="170" y="275" width="30" height="30" as="geometry" />
        </mxCell>
        <mxCell id="ezw_vOgPTsSlq73NOPaX-11" value="y&lt;sub&gt;1&lt;/sub&gt;" style="ellipse;whiteSpace=wrap;html=1;aspect=fixed;" vertex="1" parent="1">
          <mxGeometry x="370" y="155" width="30" height="30" as="geometry" />
        </mxCell>
        <mxCell id="ezw_vOgPTsSlq73NOPaX-12" value="y&lt;span style=&quot;font-size: 10px;&quot;&gt;&lt;sub&gt;2&lt;/sub&gt;&lt;/span&gt;" style="ellipse;whiteSpace=wrap;html=1;aspect=fixed;" vertex="1" parent="1">
          <mxGeometry x="370" y="205" width="30" height="30" as="geometry" />
        </mxCell>
        <mxCell id="ezw_vOgPTsSlq73NOPaX-13" value="y&lt;span style=&quot;font-size: 10px;&quot;&gt;&lt;sub&gt;3&lt;/sub&gt;&lt;/span&gt;" style="ellipse;whiteSpace=wrap;html=1;aspect=fixed;" vertex="1" parent="1">
          <mxGeometry x="370" y="255" width="30" height="30" as="geometry" />
        </mxCell>
        <mxCell id="ezw_vOgPTsSlq73NOPaX-14" value="y&lt;span style=&quot;font-size: 10px;&quot;&gt;&lt;sub&gt;4&lt;/sub&gt;&lt;/span&gt;" style="ellipse;whiteSpace=wrap;html=1;aspect=fixed;" vertex="1" parent="1">
          <mxGeometry x="370" y="305" width="30" height="30" as="geometry" />
        </mxCell>
      </root>
    </mxGraphModel>
  </diagram>
</mxfile>
